<mxfile host="app.diagrams.net" modified="2023-11-28T10:16:45.737Z" agent="Mozilla/5.0 (Windows NT 10.0; Win64; x64) AppleWebKit/537.36 (KHTML, like Gecko) Chrome/119.0.0.0 Safari/537.36" etag="Jo7EfzaBCQiru0pqRQbl" version="22.1.4" type="device">
  <diagram name="Strona-1" id="7UbR4goyFSCvJogLGe2F">
    <mxGraphModel dx="555" dy="669" grid="1" gridSize="10" guides="1" tooltips="1" connect="1" arrows="1" fold="1" page="1" pageScale="1" pageWidth="827" pageHeight="1169" math="0" shadow="0">
      <root>
        <mxCell id="0" />
        <mxCell id="1" parent="0" />
        <mxCell id="WqmA6WD7Ueza7fQNUgUJ-15" value="" style="endArrow=diamondThin;endFill=1;endSize=24;html=1;rounded=0;entryX=0.888;entryY=-0.014;entryDx=0;entryDy=0;entryPerimeter=0;" edge="1" parent="1">
          <mxGeometry width="160" relative="1" as="geometry">
            <mxPoint x="270" y="536" as="sourcePoint" />
            <mxPoint x="270.00000000000006" y="409.9980000000001" as="targetPoint" />
          </mxGeometry>
        </mxCell>
        <mxCell id="WqmA6WD7Ueza7fQNUgUJ-16" value="Processor" style="swimlane;fontStyle=1;align=center;verticalAlign=top;childLayout=stackLayout;horizontal=1;startSize=26;horizontalStack=0;resizeParent=1;resizeParentMax=0;resizeLast=0;collapsible=1;marginBottom=0;whiteSpace=wrap;html=1;" vertex="1" parent="1">
          <mxGeometry x="210" y="540" width="160" height="170" as="geometry" />
        </mxCell>
        <mxCell id="WqmA6WD7Ueza7fQNUgUJ-17" value="-brand:String;&lt;br&gt;-model:String&lt;br&gt;-speed:int&lt;br&gt;-isRunning:bool" style="text;strokeColor=none;fillColor=none;align=left;verticalAlign=top;spacingLeft=4;spacingRight=4;overflow=hidden;rotatable=0;points=[[0,0.5],[1,0.5]];portConstraint=eastwest;whiteSpace=wrap;html=1;" vertex="1" parent="WqmA6WD7Ueza7fQNUgUJ-16">
          <mxGeometry y="26" width="160" height="64" as="geometry" />
        </mxCell>
        <mxCell id="WqmA6WD7Ueza7fQNUgUJ-18" value="" style="line;strokeWidth=1;fillColor=none;align=left;verticalAlign=middle;spacingTop=-1;spacingLeft=3;spacingRight=3;rotatable=0;labelPosition=right;points=[];portConstraint=eastwest;strokeColor=inherit;" vertex="1" parent="WqmA6WD7Ueza7fQNUgUJ-16">
          <mxGeometry y="90" width="160" height="8" as="geometry" />
        </mxCell>
        <mxCell id="WqmA6WD7Ueza7fQNUgUJ-19" value="&lt;br&gt;+start():void&lt;br&gt;+stop():void&lt;br&gt;" style="text;strokeColor=none;fillColor=none;align=left;verticalAlign=top;spacingLeft=4;spacingRight=4;overflow=hidden;rotatable=0;points=[[0,0.5],[1,0.5]];portConstraint=eastwest;whiteSpace=wrap;html=1;" vertex="1" parent="WqmA6WD7Ueza7fQNUgUJ-16">
          <mxGeometry y="98" width="160" height="72" as="geometry" />
        </mxCell>
        <mxCell id="WqmA6WD7Ueza7fQNUgUJ-20" value="Computer" style="swimlane;fontStyle=1;align=center;verticalAlign=top;childLayout=stackLayout;horizontal=1;startSize=26;horizontalStack=0;resizeParent=1;resizeParentMax=0;resizeLast=0;collapsible=1;marginBottom=0;whiteSpace=wrap;html=1;" vertex="1" parent="1">
          <mxGeometry x="160" y="250" width="160" height="160" as="geometry" />
        </mxCell>
        <mxCell id="WqmA6WD7Ueza7fQNUgUJ-21" value="-type:String&lt;br&gt;-model:String&lt;br&gt;-RAM:int&lt;br&gt;-processor:Processor" style="text;strokeColor=none;fillColor=none;align=left;verticalAlign=top;spacingLeft=4;spacingRight=4;overflow=hidden;rotatable=0;points=[[0,0.5],[1,0.5]];portConstraint=eastwest;whiteSpace=wrap;html=1;" vertex="1" parent="WqmA6WD7Ueza7fQNUgUJ-20">
          <mxGeometry y="26" width="160" height="74" as="geometry" />
        </mxCell>
        <mxCell id="WqmA6WD7Ueza7fQNUgUJ-22" value="" style="line;strokeWidth=1;fillColor=none;align=left;verticalAlign=middle;spacingTop=-1;spacingLeft=3;spacingRight=3;rotatable=0;labelPosition=right;points=[];portConstraint=eastwest;strokeColor=inherit;" vertex="1" parent="WqmA6WD7Ueza7fQNUgUJ-20">
          <mxGeometry y="100" width="160" height="8" as="geometry" />
        </mxCell>
        <mxCell id="WqmA6WD7Ueza7fQNUgUJ-23" value="+turnOn():void&lt;br&gt;+shutDown():void" style="text;strokeColor=none;fillColor=none;align=left;verticalAlign=top;spacingLeft=4;spacingRight=4;overflow=hidden;rotatable=0;points=[[0,0.5],[1,0.5]];portConstraint=eastwest;whiteSpace=wrap;html=1;" vertex="1" parent="WqmA6WD7Ueza7fQNUgUJ-20">
          <mxGeometry y="108" width="160" height="52" as="geometry" />
        </mxCell>
      </root>
    </mxGraphModel>
  </diagram>
</mxfile>
